<?xml version="1.0" encoding="UTF-8"?>
<svg id="Layer_1" xmlns="http://www.w3.org/2000/svg" version="1.1" viewBox="0 0 192.02 24">
  <!-- Generator: Adobe Illustrator 30.0.0, SVG Export Plug-In . SVG Version: 2.1.1 Build 123)  -->
  <defs>
    <style>
      .st0 {
        fill: #6060f4;
      }
    </style>
  </defs>
  <path class="st0" d="M20.89,0c.27.06.53.08.8.16,1.15.34,2.02,1.37,2.24,2.54.1,6.16.1,12.36,0,18.53-.22,1.36-1.26,2.42-2.61,2.69-6.19.12-12.42.1-18.61,0-1.17-.21-2.2-1.09-2.54-2.24-.08-.26-.1-.53-.16-.8V3.09C.15,1.42,1.41.14,3.09,0h17.8ZM6.22,4.51c-2.35.32-2.16,4.11.36,4.11,2.84,0,2.73-4.53-.36-4.11ZM12.79,10.59v-.82c0-.19-.37-.34-.54-.35-.49-.05-1.73-.06-2.2,0-.2.03-.36.12-.44.31v9.31c0,.28.17.42.43.45.51.05,1.86.07,2.35,0,.23-.03.37-.22.4-.45.2-1.64-.37-4.52.24-5.94.33-.79.92-1.16,1.79-1.06.91.11,1.28.97,1.34,1.8.12,1.64-.16,3.49,0,5.11.02.25.12.5.4.54.54.07,1.89.05,2.44,0,.25-.02.41-.14.44-.4-.31-3.47,1.47-10.23-4.15-9.81-1.03.08-1.87.5-2.51,1.31ZM5.42,9.43c-.18.04-.41.23-.41.43v9.27c.03.14.21.33.35.35h2.47c.23-.09.37-.29.36-.53v-9.13c-.08-.25-.25-.37-.5-.4-.36-.05-1.96-.06-2.28,0Z"/>
  <path class="st0" d="M100.76,24h-19.5c-1.18-.21-2.04-1.07-2.25-2.25V2.25c.22-1.21,1.13-2.12,2.37-2.25h19.22c1.3.1,2.3,1.12,2.41,2.41v19.22c-.1,1.16-1.09,2.23-2.25,2.37ZM87.7,3.66h-4.85l6.37,9.26-6.37,7.43h1.43l5.58-6.47,4.45,6.47h4.85l-6.6-9.63,6.04-7.05h-1.38l-5.25,6.09-.14-.1-4.13-6Z"/>
  <polygon class="st0" points="97.19 19.31 95.01 19.31 84.82 4.74 87 4.74 97.19 19.31"/>
  <path class="st0" d="M192.02,6.63v10.74c-.27,3.56-3.05,6.4-6.66,6.63h-20.62c-3.36-.21-6.12-2.75-6.58-6.08,0-3.64-.26-7.36-.08-11s2.88-6.65,6.66-6.93h20.62c3.48.22,6.43,3.01,6.6,6.53l.06.11ZM170.59,7.11c-.06.02-.11.06-.15.12v9.55c.18.38.84-.02,1.12-.14,2.89-1.27,5.67-2.83,8.57-4.09.45-.3.33-.57-.07-.82l-9.01-4.58c-.14-.06-.32-.08-.47-.04Z"/>
</svg>