<?xml version="1.0" encoding="UTF-8"?>
<svg id="Layer_1" xmlns="http://www.w3.org/2000/svg" version="1.1" viewBox="0 0 88.7 15.57">
  <!-- Generator: Adobe Illustrator 30.0.0, SVG Export Plug-In . SVG Version: 2.1.1 Build 123)  -->
  <defs>
    <style>
      .st0 {
        fill: #4e48bf;
      }

      .st0, .st1, .st2 {
        fill-rule: evenodd;
      }

      .st3 {
        fill: #1d2939;
      }

      .st1 {
        fill: #8e88df;
      }

      .st2 {
        fill: #6960d5;
      }
    </style>
  </defs>
  <g>
    <path class="st3" d="M19.87,12.32V3.34h3.45c.62,0,1.16.11,1.64.32.48.21.86.55,1.13.97.28.42.4.95.4,1.58s-.14,1.13-.42,1.55c-.28.42-.65.76-1.13.97s-1.02.32-1.62.32h-1.58v3.26h-1.87v.02ZM21.73,7.44h1.58c.26,0,.49-.05.69-.16.19-.11.33-.25.44-.44.11-.18.18-.4.18-.63,0-.25-.05-.46-.18-.65-.11-.18-.25-.33-.44-.44s-.42-.16-.69-.16h-1.58v2.48Z"/>
    <path class="st3" d="M27.43,12.32v-6.58h1.69v1.58l-.12-.23c.14-.55.39-.93.7-1.13.33-.19.74-.3,1.2-.3h.39v1.57h-.56c-.44,0-.79.14-1.07.4s-.4.65-.4,1.13v3.54h-1.81v.02Z"/>
    <path class="st3" d="M35.14,12.46c-.7,0-1.3-.16-1.81-.46-.51-.32-.91-.74-1.2-1.25-.28-.53-.42-1.11-.42-1.74s.14-1.25.44-1.76.69-.91,1.2-1.21,1.06-.44,1.69-.44c.53,0,.99.09,1.39.25.4.16.74.39,1.02.69s.49.65.63,1.04.21.81.21,1.27c0,.12,0,.26-.02.39,0,.12-.04.23-.05.32h-4.93v-1.32h3.91l-.86.63c.09-.35.07-.65-.02-.91-.09-.28-.25-.49-.48-.63-.21-.16-.49-.25-.81-.25s-.58.07-.81.23c-.23.16-.39.37-.51.67-.11.3-.16.65-.14,1.09-.04.37.02.69.14.97s.3.51.55.67c.25.16.55.23.9.23.32,0,.6-.07.83-.19.23-.12.42-.3.55-.53l1.44.69c-.12.32-.33.6-.62.84s-.6.42-.97.56c-.39.12-.81.18-1.25.18Z"/>
    <path class="st3" d="M42.3,12.46c-.65,0-1.21-.16-1.72-.46-.51-.3-.91-.72-1.2-1.25s-.44-1.11-.44-1.74.14-1.21.44-1.74.7-.93,1.2-1.25c.51-.3,1.07-.46,1.71-.46.48,0,.91.09,1.28.28.37.18.67.42.9.76l-.28.37v-3.77h1.81v9.11h-1.69v-1.2l.18.37c-.23.32-.53.56-.91.74-.39.16-.81.23-1.27.23ZM42.53,10.84c.33,0,.62-.07.86-.23.25-.16.44-.37.58-.63.14-.28.21-.58.21-.93s-.07-.67-.21-.93c-.14-.28-.33-.49-.58-.63-.25-.16-.55-.23-.86-.23-.33,0-.63.09-.9.25s-.46.37-.6.63c-.14.26-.21.58-.21.93s.07.67.21.93c.14.28.35.49.6.63.26.14.56.21.9.21Z"/>
    <path class="st3" d="M47.19,12.32v-6.58h1.81v6.58h-1.81ZM47.19,5.16v-1.81h1.81v1.81h-1.81Z"/>
    <path class="st3" d="M53.44,12.46c-.65,0-1.25-.14-1.78-.44s-.93-.72-1.25-1.25c-.3-.53-.46-1.11-.46-1.76s.16-1.23.46-1.74c.3-.53.72-.93,1.25-1.23s1.13-.44,1.78-.44c.49,0,.95.09,1.35.25.42.18.77.4,1.07.7s.51.65.63,1.06l-1.57.67c-.11-.33-.3-.6-.58-.79-.26-.19-.58-.28-.93-.28-.32,0-.6.07-.84.23-.25.16-.44.37-.58.63-.14.28-.21.58-.21.93s.07.67.21.93c.14.28.33.49.58.63.25.16.53.23.84.23.37,0,.67-.09.93-.28s.46-.46.56-.79l1.57.69c-.12.39-.33.74-.63,1.04s-.65.55-1.07.72c-.39.23-.84.3-1.34.3Z"/>
    <path class="st3" d="M60.62,12.39c-.79,0-1.41-.21-1.85-.63-.44-.44-.65-1.04-.65-1.81v-2.64h-1.11v-1.57h.05c.33,0,.6-.09.77-.25.19-.18.28-.42.28-.76v-.48h1.79v1.5h1.55v1.57h-1.55v2.52c0,.23.04.42.12.56s.21.25.37.32c.18.07.37.11.63.11.05,0,.12,0,.19-.02.07,0,.14-.02.23-.02v1.53c-.12.02-.26.04-.4.05-.16.02-.3.02-.44.02Z"/>
    <path class="st3" d="M62.53,12.32V3.34h6.04v1.62h-4.17v2.04h3.92v1.62h-3.92v2.08h4.17v1.62h-6.04Z"/>
    <path class="st3" d="M71.4,12.46c-.48,0-.88-.07-1.23-.23s-.62-.37-.79-.65-.28-.63-.28-1.02.09-.69.25-.97c.18-.28.42-.53.77-.72s.79-.33,1.32-.4l2.01-.32v1.32l-1.69.3c-.26.05-.46.14-.6.25-.14.11-.21.28-.21.49,0,.19.07.35.23.48.16.11.33.18.56.18.3,0,.56-.07.79-.19.23-.12.4-.3.51-.51.12-.23.19-.48.19-.74v-1.71c0-.25-.11-.46-.3-.63s-.46-.25-.79-.25c-.32,0-.6.09-.86.26-.25.18-.42.4-.53.7l-1.44-.69c.12-.37.33-.69.62-.95s.62-.48,1.02-.62c.39-.14.83-.21,1.28-.21.55,0,1.04.11,1.48.3.42.19.76.48.99.84.25.35.37.77.37,1.25v4.33h-1.69v-1.06l.4-.07c-.19.28-.4.53-.63.72-.23.18-.49.32-.79.4-.26.07-.6.11-.95.11Z"/>
    <path class="st3" d="M78.85,12.46c-.72,0-1.35-.18-1.9-.51-.53-.35-.9-.81-1.09-1.39l1.32-.63c.18.35.4.63.69.83.28.19.62.3.97.3.26,0,.46-.05.6-.16s.21-.25.21-.44c0-.09-.02-.18-.07-.25s-.12-.14-.21-.19-.21-.11-.37-.14l-1.13-.32c-.55-.16-.95-.4-1.25-.74-.28-.35-.44-.76-.44-1.21,0-.4.11-.77.32-1.07.21-.3.51-.55.88-.7.37-.18.81-.26,1.3-.26.65,0,1.2.16,1.69.46.49.3.83.72,1.04,1.27l-1.34.63c-.09-.28-.28-.49-.53-.65-.25-.18-.53-.25-.86-.25-.23,0-.42.05-.55.14s-.19.23-.19.4c0,.09.02.18.07.25s.12.14.23.19c.11.05.25.11.4.16l1.06.32c.55.16.97.4,1.25.74.28.32.44.72.44,1.2,0,.4-.11.77-.32,1.07-.21.3-.51.55-.88.72-.37.18-.81.25-1.34.25Z"/>
    <path class="st3" d="M83.26,14.97c-.19,0-.39-.02-.56-.05-.18-.04-.33-.09-.48-.16v-1.48c.11.04.25.05.4.09.16.02.3.04.42.04.35,0,.6-.09.76-.25s.28-.35.37-.55l.44-1.02-.02,1.51-2.89-7.34h1.94l1.92,5.21h-.72l1.92-5.21h1.94l-2.82,7.2c-.18.46-.39.83-.65,1.13-.26.3-.55.53-.88.67-.33.14-.69.21-1.09.21Z"/>
  </g>
  <path class="st1" d="M.26,3.96c.18-.28.4-.53.7-.7L6.14.26c.62-.35,1.35-.35,1.97,0l5.16,2.97c.3.18.55.42.7.7l-6.91,5.19L.26,3.96ZM6.12,3.33l-2.48,1.44,1.9,1.09,1.09-.63c.3-.18.65-.18.95,0l1.09.63,1.9-1.09-2.46-1.43c-.63-.37-1.37-.37-1.99-.02Z"/>
  <path class="st2" d="M13.95,3.92c.16.3.28.62.28.97l.02,6c0,.7-.37,1.35-.99,1.71l-5.17,2.97-.02-3.1,2.5-1.43c.62-.35.99-1,.99-1.71l-.02-2.87-1.9,1.09v1.27c0,.33-.18.65-.48.83l-1.65.95c-.14.09-.3.12-.46.12v-2.16c0-.42.23-.79.58-1,1.67-.97,6.32-3.64,6.32-3.64Z"/>
  <path class="st0" d="M7.07,10.72c-.16,0-.32-.05-.46-.12l-1.64-.93c-.3-.18-.48-.48-.48-.81v-1.27l-1.87-1.11-.02,2.87c0,.7.37,1.35.97,1.71l2.46,1.43.02,3.06L.97,12.58C.37,12.23-.02,11.58,0,10.87l.02-5.96c0-.35.09-.67.25-.97l6.25,3.61c.35.21.58.6.58,1-.02.84-.02,2.16-.02,2.16Z"/>
</svg>